<?xml version="1.0" encoding="UTF-8" standalone="no"?>
<!DOCTYPE svg PUBLIC "-//W3C//DTD SVG 1.1//EN" "http://www.w3.org/Graphics/SVG/1.1/DTD/svg11.dtd">
<svg xmlns="http://www.w3.org/2000/svg" version="1.1" viewBox="0.00 0.00 336.00 328.00">
<g stroke-width="2.00" fill="none" stroke-linecap="butt">
<path stroke="#834965" vector-effect="non-scaling-stroke" d="
  M 50.31 57.10
  C 42.29 68.70 35.76 80.76 31.50 94.25
  Q 27.82 105.92 23.77 127.25
  Q 16.73 164.34 24.07 204.79
  Q 26.96 220.67 35.65 233.34
  C 47.93 251.25 68.55 264.14 88.25 271.20
  Q 105.59 277.42 133.21 284.89
  C 148.98 289.16 168.79 292.05 184.74 287.27
  Q 205.96 280.91 224.45 270.44
  Q 244.59 259.04 257.13 238.39
  C 261.72 230.82 264.23 220.12 266.05 211.49
  Q 267.52 204.47 268.05 195.40
  Q 270.20 158.68 261.16 123.15
  C 250.53 81.35 223.33 44.08 184.16 25.22
  Q 174.92 20.78 165.39 18.45
  Q 145.11 13.49 123.99 15.37
  Q 109.99 16.62 99.50 21.32
  C 83.03 28.72 70.31 35.93 57.95 48.00
  Q 53.81 52.04 50.31 57.10"
/>
<path stroke="#834965" vector-effect="non-scaling-stroke" d="
  M 170.9962 50.3131
  A 5.61 5.27 100.1 0 0 177.1683 45.7142
  A 5.61 5.27 100.1 0 0 172.9638 39.2669
  A 5.61 5.27 100.1 0 0 166.7917 43.8658
  A 5.61 5.27 100.1 0 0 170.9962 50.3131"
/>
<path stroke="#834965" vector-effect="non-scaling-stroke" d="
  M 144.5554 55.7151
  A 5.70 5.18 113.3 0 0 151.5676 52.5289
  A 5.70 5.18 113.3 0 0 149.0646 45.2449
  A 5.70 5.18 113.3 0 0 142.0524 48.4311
  A 5.70 5.18 113.3 0 0 144.5554 55.7151"
/>
<path stroke="#834965" vector-effect="non-scaling-stroke" d="
  M 158.36 61.12
  C 148.61 69.37 149.39 88.53 151.85 99.61
  C 153.64 107.68 157.50 113.04 163.79 117.94
  Q 171.40 123.88 178.21 125.49
  C 192.20 128.79 204.21 114.95 206.71 102.49
  Q 210.69 82.63 199.67 67.70
  Q 193.00 58.66 184.31 55.36
  Q 171.09 50.34 158.36 61.12"
/>
<path stroke="#834965" vector-effect="non-scaling-stroke" d="
  M 217.00 138.17
  C 221.10 140.46 226.90 146.37 231.69 145.69
  A 0.81 0.81 0.0 0 0 232.32 144.56
  C 230.07 139.45 226.64 137.74 222.55 134.56
  Q 220.01 132.59 216.71 132.39
  C 202.61 131.53 206.53 151.48 209.80 158.88
  C 210.97 161.52 215.78 160.35 217.73 159.55
  A 0.85 0.85 0.0 0 0 218.13 158.33
  C 215.70 154.35 211.09 141.69 216.09 138.22
  Q 216.53 137.91 217.00 138.17"
/>
<path stroke="#834965" vector-effect="non-scaling-stroke" d="
  M 181.73 160.50
  C 183.07 166.14 182.64 173.03 179.06 178.01
  Q 177.87 179.66 179.69 180.57
  Q 181.37 181.41 183.43 180.28
  C 188.00 177.79 189.37 168.26 189.10 163.78
  C 188.69 157.21 187.45 152.02 180.29 150.79
  C 173.12 149.56 166.95 153.57 161.22 158.21
  C 159.85 159.32 158.05 160.88 160.06 162.55
  C 162.63 164.68 171.15 158.61 174.62 158.27
  C 176.55 158.09 181.16 158.07 181.73 160.50"
/>
<path stroke="#772446" vector-effect="non-scaling-stroke" d="
  M 175.83 115.08
  C 180.55 117.92 187.20 117.31 191.05 114.09
  Q 193.98 111.65 196.97 105.35
  Q 201.67 95.45 200.18 84.68
  C 198.04 69.22 185.35 56.41 168.81 62.01
  C 162.49 64.16 159.15 73.49 158.51 79.49
  Q 156.01 103.17 175.83 115.08"
/>
</g>
<path fill="#060102" d="
  M 217.51 288.97
  A 0.70 0.70 0.0 0 0 217.49 290.19
  C 228.79 296.75 240.35 302.60 252.09 308.31
  C 254.43 309.45 256.43 311.11 258.52 312.59
  A 1.05 1.03 -76.1 0 1 258.96 313.34
  C 260.78 329.88 230.55 315.83 224.76 312.97
  C 216.13 308.71 206.59 306.63 201.78 297.17
  Q 201.54 296.69 201.01 296.65
  C 196.46 296.27 191.87 297.91 185.64 299.39
  Q 179.81 300.78 174.65 301.22
  Q 159.94 302.45 149.50 301.65
  Q 145.33 301.34 129.79 299.15
  A 1.19 1.17 -60.0 0 0 128.89 299.40
  Q 125.58 302.01 123.19 305.28
  Q 120.42 309.07 118.98 310.44
  Q 110.08 318.86 99.41 324.96
  C 94.85 327.57 84.02 330.09 81.18 323.89
  C 79.17 319.54 82.04 313.93 85.38 310.88
  Q 94.25 302.81 103.34 295.50
  A 1.10 1.10 0.0 0 0 103.00 293.60
  C 96.24 291.34 89.31 289.27 82.98 286.18
  C 64.32 277.08 44.35 266.46 30.69 251.53
  C 26.51 246.95 23.04 239.92 19.94 233.56
  Q 9.10 211.39 7.40 186.48
  C 5.13 153.12 6.84 120.31 16.53 89.00
  Q 24.81 62.27 42.49 41.10
  Q 49.42 32.81 56.91 27.32
  C 66.08 20.60 76.40 15.47 86.83 10.72
  Q 91.69 8.50 98.96 6.70
  C 105.54 5.07 112.42 3.03 118.77 2.17
  C 134.14 0.09 149.80 0.31 164.84 4.91
  Q 181.56 10.03 196.83 18.53
  Q 205.47 23.34 213.38 29.70
  C 227.85 41.33 241.37 55.66 250.80 71.75
  C 262.51 91.72 271.92 114.46 276.16 137.89
  C 279.91 158.54 281.60 181.15 279.50 201.25
  Q 278.25 213.09 272.74 228.98
  Q 266.49 247.00 254.31 261.16
  C 244.64 272.40 230.77 281.80 217.51 288.97
  Z
  M 50.31 57.10
  C 42.29 68.70 35.76 80.76 31.50 94.25
  Q 27.82 105.92 23.77 127.25
  Q 16.73 164.34 24.07 204.79
  Q 26.96 220.67 35.65 233.34
  C 47.93 251.25 68.55 264.14 88.25 271.20
  Q 105.59 277.42 133.21 284.89
  C 148.98 289.16 168.79 292.05 184.74 287.27
  Q 205.96 280.91 224.45 270.44
  Q 244.59 259.04 257.13 238.39
  C 261.72 230.82 264.23 220.12 266.05 211.49
  Q 267.52 204.47 268.05 195.40
  Q 270.20 158.68 261.16 123.15
  C 250.53 81.35 223.33 44.08 184.16 25.22
  Q 174.92 20.78 165.39 18.45
  Q 145.11 13.49 123.99 15.37
  Q 109.99 16.62 99.50 21.32
  C 83.03 28.72 70.31 35.93 57.95 48.00
  Q 53.81 52.04 50.31 57.10
  Z"
/>
<path fill="#ff91c8" d="
  M 31.50 94.25
  C 35.76 80.76 42.29 68.70 50.31 57.10
  Q 53.81 52.04 57.95 48.00
  C 70.31 35.93 83.03 28.72 99.50 21.32
  Q 109.99 16.62 123.99 15.37
  Q 145.11 13.49 165.39 18.45
  Q 174.92 20.78 184.16 25.22
  C 223.33 44.08 250.53 81.35 261.16 123.15
  Q 270.20 158.68 268.05 195.40
  Q 267.52 204.47 266.05 211.49
  C 264.23 220.12 261.72 230.82 257.13 238.39
  Q 244.59 259.04 224.45 270.44
  Q 205.96 280.91 184.74 287.27
  C 168.79 292.05 148.98 289.16 133.21 284.89
  Q 105.59 277.42 88.25 271.20
  C 68.55 264.14 47.93 251.25 35.65 233.34
  Q 26.96 220.67 24.07 204.79
  Q 16.73 164.34 23.77 127.25
  Q 27.82 105.92 31.50 94.25
  Z
  M 170.9962 50.3131
  A 5.61 5.27 100.1 0 0 177.1683 45.7142
  A 5.61 5.27 100.1 0 0 172.9638 39.2669
  A 5.61 5.27 100.1 0 0 166.7917 43.8658
  A 5.61 5.27 100.1 0 0 170.9962 50.3131
  Z
  M 144.5554 55.7151
  A 5.70 5.18 113.3 0 0 151.5676 52.5289
  A 5.70 5.18 113.3 0 0 149.0646 45.2449
  A 5.70 5.18 113.3 0 0 142.0524 48.4311
  A 5.70 5.18 113.3 0 0 144.5554 55.7151
  Z
  M 158.36 61.12
  C 148.61 69.37 149.39 88.53 151.85 99.61
  C 153.64 107.68 157.50 113.04 163.79 117.94
  Q 171.40 123.88 178.21 125.49
  C 192.20 128.79 204.21 114.95 206.71 102.49
  Q 210.69 82.63 199.67 67.70
  Q 193.00 58.66 184.31 55.36
  Q 171.09 50.34 158.36 61.12
  Z
  M 217.00 138.17
  C 221.10 140.46 226.90 146.37 231.69 145.69
  A 0.81 0.81 0.0 0 0 232.32 144.56
  C 230.07 139.45 226.64 137.74 222.55 134.56
  Q 220.01 132.59 216.71 132.39
  C 202.61 131.53 206.53 151.48 209.80 158.88
  C 210.97 161.52 215.78 160.35 217.73 159.55
  A 0.85 0.85 0.0 0 0 218.13 158.33
  C 215.70 154.35 211.09 141.69 216.09 138.22
  Q 216.53 137.91 217.00 138.17
  Z
  M 181.73 160.50
  C 183.07 166.14 182.64 173.03 179.06 178.01
  Q 177.87 179.66 179.69 180.57
  Q 181.37 181.41 183.43 180.28
  C 188.00 177.79 189.37 168.26 189.10 163.78
  C 188.69 157.21 187.45 152.02 180.29 150.79
  C 173.12 149.56 166.95 153.57 161.22 158.21
  C 159.85 159.32 158.05 160.88 160.06 162.55
  C 162.63 164.68 171.15 158.61 174.62 158.27
  C 176.55 158.09 181.16 158.07 181.73 160.50
  Z"
/>
<ellipse fill="#060102" cx="0.00" cy="0.00" transform="translate(171.98,44.79) rotate(100.1)" rx="5.61" ry="5.27"/>
<ellipse fill="#060102" cx="0.00" cy="0.00" transform="translate(146.81,50.48) rotate(113.3)" rx="5.70" ry="5.18"/>
<path fill="#060102" d="
  M 151.85 99.61
  C 149.39 88.53 148.61 69.37 158.36 61.12
  Q 171.09 50.34 184.31 55.36
  Q 193.00 58.66 199.67 67.70
  Q 210.69 82.63 206.71 102.49
  C 204.21 114.95 192.20 128.79 178.21 125.49
  Q 171.40 123.88 163.79 117.94
  C 157.50 113.04 153.64 107.68 151.85 99.61
  Z
  M 175.83 115.08
  C 180.55 117.92 187.20 117.31 191.05 114.09
  Q 193.98 111.65 196.97 105.35
  Q 201.67 95.45 200.18 84.68
  C 198.04 69.22 185.35 56.41 168.81 62.01
  C 162.49 64.16 159.15 73.49 158.51 79.49
  Q 156.01 103.17 175.83 115.08
  Z"
/>
<path fill="#e74689" d="
  M 191.05 114.09
  C 187.20 117.31 180.55 117.92 175.83 115.08
  Q 156.01 103.17 158.51 79.49
  C 159.15 73.49 162.49 64.16 168.81 62.01
  C 185.35 56.41 198.04 69.22 200.18 84.68
  Q 201.67 95.45 196.97 105.35
  Q 193.98 111.65 191.05 114.09
  Z"
/>
<path fill="#060102" d="
  M 216.09 138.22
  C 211.09 141.69 215.70 154.35 218.13 158.33
  A 0.85 0.85 0.0 0 1 217.73 159.55
  C 215.78 160.35 210.97 161.52 209.80 158.88
  C 206.53 151.48 202.61 131.53 216.71 132.39
  Q 220.01 132.59 222.55 134.56
  C 226.64 137.74 230.07 139.45 232.32 144.56
  A 0.81 0.81 0.0 0 1 231.69 145.69
  C 226.90 146.37 221.10 140.46 217.00 138.17
  Q 216.53 137.91 216.09 138.22
  Z"
/>
<path fill="#060102" d="
  M 179.06 178.01
  C 182.64 173.03 183.07 166.14 181.73 160.50
  C 181.16 158.07 176.55 158.09 174.62 158.27
  C 171.15 158.61 162.63 164.68 160.06 162.55
  C 158.05 160.88 159.85 159.32 161.22 158.21
  C 166.95 153.57 173.12 149.56 180.29 150.79
  C 187.45 152.02 188.69 157.21 189.10 163.78
  C 189.37 168.26 188.00 177.79 183.43 180.28
  Q 181.37 181.41 179.69 180.57
  Q 177.87 179.66 179.06 178.01
  Z"
/>
</svg>
