<?xml version="1.0" encoding="UTF-8" standalone="no"?>
<!DOCTYPE svg PUBLIC "-//W3C//DTD SVG 1.1//EN" "http://www.w3.org/Graphics/SVG/1.1/DTD/svg11.dtd">
<svg xmlns="http://www.w3.org/2000/svg" version="1.1" viewBox="0.00 0.00 336.00 328.00">
<g stroke-width="2.00" fill="none" stroke-linecap="butt">
<path stroke="#844a65" vector-effect="non-scaling-stroke" d="
  M 29.00 178.90
  C 24.80 211.07 30.65 239.91 56.32 261.70
  Q 75.20 277.73 98.00 287.49
  Q 107.87 291.71 116.50 293.25
  C 136.48 296.82 157.86 298.20 178.59 297.13
  C 194.22 296.32 203.46 295.40 217.22 291.47
  Q 238.48 285.39 256.71 277.18
  C 276.54 268.25 293.68 253.95 299.23 232.00
  Q 302.38 219.55 302.48 208.50
  C 302.64 192.37 299.02 175.92 295.14 159.77
  C 287.53 128.07 271.04 101.68 241.78 86.10
  C 228.35 78.95 212.62 75.48 197.26 73.73
  C 142.73 67.53 82.49 81.70 48.67 128.70
  Q 32.65 150.97 29.00 178.90"
/>
<path stroke="#854d6c" vector-effect="non-scaling-stroke" d="
  M 193.15 111.14
  Q 194.34 108.99 194.44 106.53
  C 194.91 94.34 175.99 101.30 179.63 109.90
  C 181.64 114.66 190.40 116.09 193.15 111.14"
/>
<path stroke="#854d6c" vector-effect="non-scaling-stroke" d="
  M 167.82 137.30
  C 182.39 137.06 196.42 129.39 204.91 117.67
  Q 205.35 117.07 206.74 116.55
  Q 207.66 116.22 208.80 116.43
  C 214.16 117.44 220.39 117.79 220.37 110.86
  C 220.37 108.41 219.29 106.86 216.72 106.93
  Q 211.58 107.08 207.27 105.76
  Q 206.16 105.41 204.29 105.88
  A 1.54 1.53 -76.8 0 0 203.49 106.38
  C 198.56 112.21 196.73 118.34 189.42 122.11
  C 176.10 128.97 156.50 132.26 142.85 123.85
  C 139.03 121.50 135.41 126.05 133.61 128.74
  C 132.38 130.59 130.80 131.51 129.34 133.09
  Q 128.30 134.23 129.56 135.12
  C 132.56 137.25 137.01 135.38 140.49 135.09
  Q 143.06 134.88 146.40 135.81
  C 153.39 137.75 158.89 137.45 167.82 137.30"
/>
<path stroke="#854d6c" vector-effect="non-scaling-stroke" d="
  M 169.92 118.03
  A 6.32 6.32 0.0 0 0 163.60 111.71
  A 6.32 6.32 0.0 0 0 157.28 118.03
  A 6.32 6.32 0.0 0 0 163.60 124.35
  A 6.32 6.32 0.0 0 0 169.92 118.03"
/>
<path stroke="#854d6c" vector-effect="non-scaling-stroke" d="
  M 281.36 159.26
  Q 281.62 152.95 281.33 146.61
  C 281.19 143.58 281.57 141.15 277.88 140.48
  Q 276.33 140.20 275.13 140.78
  C 269.10 143.64 271.00 159.87 267.07 161.58
  Q 266.62 161.78 266.16 161.57
  Q 255.57 156.55 253.72 145.19
  C 253.41 143.31 252.14 141.52 250.18 142.95
  C 246.23 145.80 246.41 150.54 248.23 154.85
  C 251.67 163.01 261.83 176.88 272.29 172.79
  Q 280.93 169.41 281.36 159.26"
/>
<path stroke="#854d6c" vector-effect="non-scaling-stroke" d="
  M 81.31 175.82
  Q 78.47 179.19 75.87 175.91
  C 72.31 171.42 75.14 163.36 77.43 158.82
  C 79.91 153.91 74.74 148.75 70.64 153.92
  Q 65.25 160.71 64.12 169.76
  Q 62.80 180.40 71.11 186.69
  Q 75.73 190.19 81.23 189.17
  C 87.43 188.02 92.39 178.05 95.48 173.54
  C 97.35 170.80 98.48 168.01 99.85 165.07
  Q 100.06 164.62 99.98 164.12
  Q 99.25 159.37 94.55 159.94
  Q 94.02 160.01 93.62 160.37
  C 88.50 165.01 85.59 170.75 81.31 175.82"
/>
</g>
<path fill="#080102" d="
  M 249.69 299.38
  Q 252.61 300.55 255.85 301.80
  Q 262.20 304.25 268.04 308.93
  C 270.98 311.30 267.71 316.29 265.91 318.21
  Q 265.56 318.58 265.04 318.61
  C 255.08 319.21 244.26 315.65 234.21 311.36
  C 231.26 310.10 228.36 306.48 224.47 307.41
  Q 211.54 310.49 198.50 313.02
  C 185.76 315.49 173.00 315.25 160.20 314.71
  C 148.17 314.20 135.45 311.52 124.00 308.93
  C 119.66 307.95 116.83 308.03 112.55 309.86
  C 108.81 311.46 105.12 313.39 101.28 314.15
  Q 94.09 315.59 86.79 314.85
  C 82.18 314.38 79.33 312.27 79.44 307.48
  A 1.45 1.43 -25.6 0 1 79.75 306.62
  C 82.35 303.40 88.91 301.26 93.24 300.86
  Q 94.24 300.77 94.74 300.51
  A 0.89 0.89 0.0 0 0 94.67 298.88
  Q 65.62 287.26 42.91 266.11
  C 26.09 250.44 16.79 227.98 15.45 205.25
  Q 12.90 162.30 35.82 126.34
  Q 46.34 109.83 60.72 96.86
  Q 67.86 90.42 76.69 84.87
  C 105.94 66.48 137.73 58.90 172.33 58.11
  C 197.66 57.54 220.64 58.74 243.56 68.43
  C 277.80 82.91 299.47 114.28 310.83 148.69
  Q 312.32 153.20 315.18 167.19
  Q 317.14 176.75 317.78 185.98
  Q 318.53 196.60 318.85 207.25
  C 318.92 209.60 318.33 212.71 318.17 215.28
  Q 316.66 238.72 304.67 258.24
  C 292.64 277.83 271.07 290.09 249.70 298.01
  A 0.74 0.73 45.6 0 0 249.69 299.38
  Z
  M 29.00 178.90
  C 24.80 211.07 30.65 239.91 56.32 261.70
  Q 75.20 277.73 98.00 287.49
  Q 107.87 291.71 116.50 293.25
  C 136.48 296.82 157.86 298.20 178.59 297.13
  C 194.22 296.32 203.46 295.40 217.22 291.47
  Q 238.48 285.39 256.71 277.18
  C 276.54 268.25 293.68 253.95 299.23 232.00
  Q 302.38 219.55 302.48 208.50
  C 302.64 192.37 299.02 175.92 295.14 159.77
  C 287.53 128.07 271.04 101.68 241.78 86.10
  C 228.35 78.95 212.62 75.48 197.26 73.73
  C 142.73 67.53 82.49 81.70 48.67 128.70
  Q 32.65 150.97 29.00 178.90
  Z"
/>
<path fill="#ff92c7" d="
  M 29.00 178.90
  Q 32.65 150.97 48.67 128.70
  C 82.49 81.70 142.73 67.53 197.26 73.73
  C 212.62 75.48 228.35 78.95 241.78 86.10
  C 271.04 101.68 287.53 128.07 295.14 159.77
  C 299.02 175.92 302.64 192.37 302.48 208.50
  Q 302.38 219.55 299.23 232.00
  C 293.68 253.95 276.54 268.25 256.71 277.18
  Q 238.48 285.39 217.22 291.47
  C 203.46 295.40 194.22 296.32 178.59 297.13
  C 157.86 298.20 136.48 296.82 116.50 293.25
  Q 107.87 291.71 98.00 287.49
  Q 75.20 277.73 56.32 261.70
  C 30.65 239.91 24.80 211.07 29.00 178.90
  Z
  M 193.15 111.14
  Q 194.34 108.99 194.44 106.53
  C 194.91 94.34 175.99 101.30 179.63 109.90
  C 181.64 114.66 190.40 116.09 193.15 111.14
  Z
  M 167.82 137.30
  C 182.39 137.06 196.42 129.39 204.91 117.67
  Q 205.35 117.07 206.74 116.55
  Q 207.66 116.22 208.80 116.43
  C 214.16 117.44 220.39 117.79 220.37 110.86
  C 220.37 108.41 219.29 106.86 216.72 106.93
  Q 211.58 107.08 207.27 105.76
  Q 206.16 105.41 204.29 105.88
  A 1.54 1.53 -76.8 0 0 203.49 106.38
  C 198.56 112.21 196.73 118.34 189.42 122.11
  C 176.10 128.97 156.50 132.26 142.85 123.85
  C 139.03 121.50 135.41 126.05 133.61 128.74
  C 132.38 130.59 130.80 131.51 129.34 133.09
  Q 128.30 134.23 129.56 135.12
  C 132.56 137.25 137.01 135.38 140.49 135.09
  Q 143.06 134.88 146.40 135.81
  C 153.39 137.75 158.89 137.45 167.82 137.30
  Z
  M 169.92 118.03
  A 6.32 6.32 0.0 0 0 163.60 111.71
  A 6.32 6.32 0.0 0 0 157.28 118.03
  A 6.32 6.32 0.0 0 0 163.60 124.35
  A 6.32 6.32 0.0 0 0 169.92 118.03
  Z
  M 281.36 159.26
  Q 281.62 152.95 281.33 146.61
  C 281.19 143.58 281.57 141.15 277.88 140.48
  Q 276.33 140.20 275.13 140.78
  C 269.10 143.64 271.00 159.87 267.07 161.58
  Q 266.62 161.78 266.16 161.57
  Q 255.57 156.55 253.72 145.19
  C 253.41 143.31 252.14 141.52 250.18 142.95
  C 246.23 145.80 246.41 150.54 248.23 154.85
  C 251.67 163.01 261.83 176.88 272.29 172.79
  Q 280.93 169.41 281.36 159.26
  Z
  M 81.31 175.82
  Q 78.47 179.19 75.87 175.91
  C 72.31 171.42 75.14 163.36 77.43 158.82
  C 79.91 153.91 74.74 148.75 70.64 153.92
  Q 65.25 160.71 64.12 169.76
  Q 62.80 180.40 71.11 186.69
  Q 75.73 190.19 81.23 189.17
  C 87.43 188.02 92.39 178.05 95.48 173.54
  C 97.35 170.80 98.48 168.01 99.85 165.07
  Q 100.06 164.62 99.98 164.12
  Q 99.25 159.37 94.55 159.94
  Q 94.02 160.01 93.62 160.37
  C 88.50 165.01 85.59 170.75 81.31 175.82
  Z"
/>
<path fill="#0b0711" d="
  M 193.15 111.14
  C 190.40 116.09 181.64 114.66 179.63 109.90
  C 175.99 101.30 194.91 94.34 194.44 106.53
  Q 194.34 108.99 193.15 111.14
  Z"
/>
<path fill="#0b0711" d="
  M 204.91 117.67
  C 196.42 129.39 182.39 137.06 167.82 137.30
  C 158.89 137.45 153.39 137.75 146.40 135.81
  Q 143.06 134.88 140.49 135.09
  C 137.01 135.38 132.56 137.25 129.56 135.12
  Q 128.30 134.23 129.34 133.09
  C 130.80 131.51 132.38 130.59 133.61 128.74
  C 135.41 126.05 139.03 121.50 142.85 123.85
  C 156.50 132.26 176.10 128.97 189.42 122.11
  C 196.73 118.34 198.56 112.21 203.49 106.38
  A 1.54 1.53 -76.8 0 1 204.29 105.88
  Q 206.16 105.41 207.27 105.76
  Q 211.58 107.08 216.72 106.93
  C 219.29 106.86 220.37 108.41 220.37 110.86
  C 220.39 117.79 214.16 117.44 208.80 116.43
  Q 207.66 116.22 206.74 116.55
  Q 205.35 117.07 204.91 117.67
  Z"
/>
<circle fill="#0b0711" cx="163.60" cy="118.03" r="6.32"/>
<path fill="#0b0711" d="
  M 281.36 159.26
  Q 280.93 169.41 272.29 172.79
  C 261.83 176.88 251.67 163.01 248.23 154.85
  C 246.41 150.54 246.23 145.80 250.18 142.95
  C 252.14 141.52 253.41 143.31 253.72 145.19
  Q 255.57 156.55 266.16 161.57
  Q 266.62 161.78 267.07 161.58
  C 271.00 159.87 269.10 143.64 275.13 140.78
  Q 276.33 140.20 277.88 140.48
  C 281.57 141.15 281.19 143.58 281.33 146.61
  Q 281.62 152.95 281.36 159.26
  Z"
/>
<path fill="#0b0711" d="
  M 81.31 175.82
  C 85.59 170.75 88.50 165.01 93.62 160.37
  Q 94.02 160.01 94.55 159.94
  Q 99.25 159.37 99.98 164.12
  Q 100.06 164.62 99.85 165.07
  C 98.48 168.01 97.35 170.80 95.48 173.54
  C 92.39 178.05 87.43 188.02 81.23 189.17
  Q 75.73 190.19 71.11 186.69
  Q 62.80 180.40 64.12 169.76
  Q 65.25 160.71 70.64 153.92
  C 74.74 148.75 79.91 153.91 77.43 158.82
  C 75.14 163.36 72.31 171.42 75.87 175.91
  Q 78.47 179.19 81.31 175.82
  Z"
/>
</svg>
