<?xml version="1.0" encoding="UTF-8" standalone="no"?>
<!DOCTYPE svg PUBLIC "-//W3C//DTD SVG 1.1//EN" "http://www.w3.org/Graphics/SVG/1.1/DTD/svg11.dtd">
<svg xmlns="http://www.w3.org/2000/svg" version="1.1" viewBox="0.00 0.00 336.00 328.00">
<g stroke-width="2.00" fill="none" stroke-linecap="butt">
<path stroke="#844b66" vector-effect="non-scaling-stroke" d="
  M 32.58 150.38
  C 32.04 151.26 31.12 152.23 30.57 153.23
  Q 23.14 166.88 19.33 181.88
  Q 18.42 185.46 16.69 190.49
  C 14.34 197.30 13.95 203.59 13.69 211.43
  Q 13.50 217.29 14.57 222.49
  Q 16.64 232.47 19.74 239.49
  C 25.14 251.72 37.16 262.38 48.21 269.34
  Q 53.92 272.93 62.69 276.15
  C 75.97 281.02 88.56 284.86 102.75 286.72
  Q 120.01 288.97 159.75 292.05
  C 167.24 292.63 175.23 291.93 182.07 292.24
  Q 199.03 293.02 216.00 292.55
  C 227.54 292.24 239.81 289.31 250.97 286.46
  C 275.18 280.29 299.18 265.87 312.75 244.53
  C 324.92 225.38 326.12 201.29 317.89 180.05
  Q 314.96 172.48 314.54 171.28
  C 311.07 161.22 304.63 151.82 297.77 141.83
  Q 292.52 134.18 287.20 128.99
  Q 272.43 114.56 253.92 105.19
  Q 250.19 103.30 244.78 101.39
  C 236.95 98.62 228.74 95.38 221.34 93.61
  C 202.27 89.04 185.17 88.91 164.71 89.39
  C 148.12 89.78 138.51 89.72 126.01 92.54
  C 112.49 95.58 99.04 100.30 86.25 106.83
  Q 73.54 113.33 61.42 120.92
  Q 52.65 126.41 47.13 131.91
  Q 38.79 140.22 32.58 150.38"
/>
<path stroke="#874d6f" vector-effect="non-scaling-stroke" d="
  M 270.35 132.50
  C 273.17 130.05 269.26 127.22 266.78 126.24
  Q 260.07 123.59 253.58 126.09
  C 250.39 127.33 247.81 131.42 244.70 133.39
  Q 231.79 141.58 218.00 144.05
  Q 205.88 146.21 194.36 141.38
  Q 187.08 138.33 186.42 138.12
  C 180.11 136.08 174.71 136.28 168.66 136.17
  C 161.44 136.04 156.08 136.90 155.68 145.12
  A 0.36 0.36 0.0 0 0 156.07 145.50
  Q 167.45 144.70 178.67 146.69
  Q 182.07 147.29 188.22 149.55
  Q 197.53 152.98 206.50 153.81
  C 223.57 155.38 243.38 145.29 255.79 133.79
  Q 257.32 132.38 261.62 131.40
  A 1.49 1.46 -36.6 0 1 262.64 131.54
  Q 265.87 133.25 269.50 132.87
  A 1.56 1.53 -67.8 0 0 270.35 132.50"
/>
<path stroke="#874d6f" vector-effect="non-scaling-stroke" d="
  M 224.47 125.77
  L 219.77 125.90
  A 1.91 1.91 0.0 0 0 217.91 127.86
  L 217.97 129.85
  A 4.24 3.73 88.4 0 0 221.81 133.98
  L 222.87 133.95
  A 4.24 3.73 88.4 0 0 226.48 129.61
  L 226.43 127.62
  A 1.91 1.91 0.0 0 0 224.47 125.77"
/>
<path stroke="#874d6f" vector-effect="non-scaling-stroke" d="
  M 206.83 137.50
  L 206.47 132.19
  A 2.34 2.34 0.0 0 0 203.97 130.02
  L 201.87 130.16
  A 6.25 5.00 -3.9 0 0 195.97 135.57
  L 195.97 135.57
  A 6.25 5.00 -3.9 0 0 202.55 140.14
  L 204.65 139.99
  A 2.34 2.34 0.0 0 0 206.83 137.50"
/>
<path stroke="#874d6f" vector-effect="non-scaling-stroke" d="
  M 283.78 165.15
  C 280.99 165.95 279.20 165.42 277.42 162.95
  C 275.09 159.74 269.70 153.50 265.39 154.54
  Q 264.92 154.65 264.69 155.07
  C 260.76 162.44 272.16 175.81 279.49 176.58
  Q 284.71 177.13 290.81 176.80
  C 294.13 176.63 296.04 175.59 296.57 172.25
  Q 298.52 160.08 294.49 149.06
  Q 293.03 145.10 289.11 146.97
  A 1.23 1.21 -1.0 0 0 288.55 147.54
  Q 284.95 155.65 284.32 164.49
  Q 284.28 165.01 283.78 165.15"
/>
<path stroke="#874d6f" vector-effect="non-scaling-stroke" d="
  M 61.11 171.49
  C 62.32 168.30 58.58 165.82 55.95 165.80
  C 52.52 165.76 51.13 169.06 49.88 171.81
  C 46.31 179.67 41.75 190.46 50.83 196.67
  C 60.52 203.29 70.16 194.84 77.38 189.38
  C 79.56 187.74 81.97 181.49 82.59 178.98
  Q 83.45 175.47 82.32 171.90
  A 0.92 0.91 -23.6 0 0 80.99 171.38
  Q 73.81 175.55 68.24 181.66
  C 66.29 183.80 63.90 185.14 61.55 187.08
  Q 59.79 188.54 57.22 187.58
  A 1.13 1.13 0.0 0 1 56.54 186.90
  C 55.19 183.17 59.14 176.63 61.11 171.49"
/>
</g>
<path fill="#080303" d="
  M 0.00 208.89
  L 0.00 207.71
  Q 0.27 202.50 0.21 197.23
  Q 0.15 192.20 3.47 188.50
  A 1.80 1.79 -20.1 0 0 3.89 187.60
  Q 6.06 173.76 10.95 163.77
  Q 21.37 142.45 38.98 122.55
  C 40.29 121.07 41.49 118.70 43.84 117.38
  Q 45.92 116.21 46.85 115.23
  Q 52.14 109.70 56.00 107.77
  Q 58.39 106.58 67.49 101.22
  Q 75.98 96.23 90.16 90.67
  C 94.77 88.86 100.09 85.72 105.51 84.05
  Q 118.62 79.99 132.09 77.75
  Q 140.47 76.36 151.98 76.08
  C 166.63 75.71 181.78 74.91 196.36 76.37
  Q 202.43 76.98 210.97 79.03
  Q 225.07 82.41 232.24 84.31
  Q 254.05 90.10 270.23 100.99
  Q 272.29 102.38 273.77 103.09
  Q 276.49 104.40 277.28 105.01
  C 302.51 124.66 323.97 153.71 332.35 185.39
  Q 336.88 202.51 334.73 221.00
  Q 334.19 225.63 330.17 234.93
  C 320.77 256.68 305.34 274.11 284.54 285.36
  C 280.48 287.55 276.38 290.11 272.25 291.81
  Q 259.65 297.02 246.40 300.89
  A 0.80 0.80 0.0 0 0 246.41 302.42
  Q 257.14 305.44 268.19 308.89
  C 271.07 309.79 274.86 312.40 274.42 315.98
  C 273.59 322.84 263.31 321.06 258.47 319.94
  Q 247.74 317.46 237.01 315.03
  Q 235.86 314.77 232.20 313.37
  C 228.82 312.08 225.82 312.82 222.72 311.70
  Q 220.18 310.77 217.70 309.75
  A 1.53 1.48 84.1 0 1 217.00 309.16
  Q 215.64 306.94 214.00 306.89
  Q 182.37 306.07 150.74 305.94
  Q 147.01 305.92 144.24 308.00
  Q 140.53 310.80 140.41 310.86
  Q 132.55 315.34 124.02 318.16
  C 113.84 321.51 103.35 320.54 91.26 320.70
  C 87.12 320.76 82.47 319.48 81.93 314.84
  C 81.39 310.19 87.18 307.03 90.94 306.58
  Q 99.93 305.51 109.38 303.25
  Q 109.87 303.13 109.37 303.03
  Q 91.92 299.34 74.34 294.59
  Q 54.19 289.14 36.13 278.67
  Q 14.94 266.39 6.51 243.47
  Q 0.46 227.01 0.00 208.89
  Z
  M 32.58 150.38
  C 32.04 151.26 31.12 152.23 30.57 153.23
  Q 23.14 166.88 19.33 181.88
  Q 18.42 185.46 16.69 190.49
  C 14.34 197.30 13.95 203.59 13.69 211.43
  Q 13.50 217.29 14.57 222.49
  Q 16.64 232.47 19.74 239.49
  C 25.14 251.72 37.16 262.38 48.21 269.34
  Q 53.92 272.93 62.69 276.15
  C 75.97 281.02 88.56 284.86 102.75 286.72
  Q 120.01 288.97 159.75 292.05
  C 167.24 292.63 175.23 291.93 182.07 292.24
  Q 199.03 293.02 216.00 292.55
  C 227.54 292.24 239.81 289.31 250.97 286.46
  C 275.18 280.29 299.18 265.87 312.75 244.53
  C 324.92 225.38 326.12 201.29 317.89 180.05
  Q 314.96 172.48 314.54 171.28
  C 311.07 161.22 304.63 151.82 297.77 141.83
  Q 292.52 134.18 287.20 128.99
  Q 272.43 114.56 253.92 105.19
  Q 250.19 103.30 244.78 101.39
  C 236.95 98.62 228.74 95.38 221.34 93.61
  C 202.27 89.04 185.17 88.91 164.71 89.39
  C 148.12 89.78 138.51 89.72 126.01 92.54
  C 112.49 95.58 99.04 100.30 86.25 106.83
  Q 73.54 113.33 61.42 120.92
  Q 52.65 126.41 47.13 131.91
  Q 38.79 140.22 32.58 150.38
  Z"
/>
<path fill="#ff92c8" d="
  M 32.58 150.38
  Q 38.79 140.22 47.13 131.91
  Q 52.65 126.41 61.42 120.92
  Q 73.54 113.33 86.25 106.83
  C 99.04 100.30 112.49 95.58 126.01 92.54
  C 138.51 89.72 148.12 89.78 164.71 89.39
  C 185.17 88.91 202.27 89.04 221.34 93.61
  C 228.74 95.38 236.95 98.62 244.78 101.39
  Q 250.19 103.30 253.92 105.19
  Q 272.43 114.56 287.20 128.99
  Q 292.52 134.18 297.77 141.83
  C 304.63 151.82 311.07 161.22 314.54 171.28
  Q 314.96 172.48 317.89 180.05
  C 326.12 201.29 324.92 225.38 312.75 244.53
  C 299.18 265.87 275.18 280.29 250.97 286.46
  C 239.81 289.31 227.54 292.24 216.00 292.55
  Q 199.03 293.02 182.07 292.24
  C 175.23 291.93 167.24 292.63 159.75 292.05
  Q 120.01 288.97 102.75 286.72
  C 88.56 284.86 75.97 281.02 62.69 276.15
  Q 53.92 272.93 48.21 269.34
  C 37.16 262.38 25.14 251.72 19.74 239.49
  Q 16.64 232.47 14.57 222.49
  Q 13.50 217.29 13.69 211.43
  C 13.95 203.59 14.34 197.30 16.69 190.49
  Q 18.42 185.46 19.33 181.88
  Q 23.14 166.88 30.57 153.23
  C 31.12 152.23 32.04 151.26 32.58 150.38
  Z
  M 270.35 132.50
  C 273.17 130.05 269.26 127.22 266.78 126.24
  Q 260.07 123.59 253.58 126.09
  C 250.39 127.33 247.81 131.42 244.70 133.39
  Q 231.79 141.58 218.00 144.05
  Q 205.88 146.21 194.36 141.38
  Q 187.08 138.33 186.42 138.12
  C 180.11 136.08 174.71 136.28 168.66 136.17
  C 161.44 136.04 156.08 136.90 155.68 145.12
  A 0.36 0.36 0.0 0 0 156.07 145.50
  Q 167.45 144.70 178.67 146.69
  Q 182.07 147.29 188.22 149.55
  Q 197.53 152.98 206.50 153.81
  C 223.57 155.38 243.38 145.29 255.79 133.79
  Q 257.32 132.38 261.62 131.40
  A 1.49 1.46 -36.6 0 1 262.64 131.54
  Q 265.87 133.25 269.50 132.87
  A 1.56 1.53 -67.8 0 0 270.35 132.50
  Z
  M 224.47 125.77
  L 219.77 125.90
  A 1.91 1.91 0.0 0 0 217.91 127.86
  L 217.97 129.85
  A 4.24 3.73 88.4 0 0 221.81 133.98
  L 222.87 133.95
  A 4.24 3.73 88.4 0 0 226.48 129.61
  L 226.43 127.62
  A 1.91 1.91 0.0 0 0 224.47 125.77
  Z
  M 206.83 137.50
  L 206.47 132.19
  A 2.34 2.34 0.0 0 0 203.97 130.02
  L 201.87 130.16
  A 6.25 5.00 -3.9 0 0 195.97 135.57
  L 195.97 135.57
  A 6.25 5.00 -3.9 0 0 202.55 140.14
  L 204.65 139.99
  A 2.34 2.34 0.0 0 0 206.83 137.50
  Z
  M 283.78 165.15
  C 280.99 165.95 279.20 165.42 277.42 162.95
  C 275.09 159.74 269.70 153.50 265.39 154.54
  Q 264.92 154.65 264.69 155.07
  C 260.76 162.44 272.16 175.81 279.49 176.58
  Q 284.71 177.13 290.81 176.80
  C 294.13 176.63 296.04 175.59 296.57 172.25
  Q 298.52 160.08 294.49 149.06
  Q 293.03 145.10 289.11 146.97
  A 1.23 1.21 -1.0 0 0 288.55 147.54
  Q 284.95 155.65 284.32 164.49
  Q 284.28 165.01 283.78 165.15
  Z
  M 61.11 171.49
  C 62.32 168.30 58.58 165.82 55.95 165.80
  C 52.52 165.76 51.13 169.06 49.88 171.81
  C 46.31 179.67 41.75 190.46 50.83 196.67
  C 60.52 203.29 70.16 194.84 77.38 189.38
  C 79.56 187.74 81.97 181.49 82.59 178.98
  Q 83.45 175.47 82.32 171.90
  A 0.92 0.91 -23.6 0 0 80.99 171.38
  Q 73.81 175.55 68.24 181.66
  C 66.29 183.80 63.90 185.14 61.55 187.08
  Q 59.79 188.54 57.22 187.58
  A 1.13 1.13 0.0 0 1 56.54 186.90
  C 55.19 183.17 59.14 176.63 61.11 171.49
  Z"
/>
<path fill="#0e0815" d="
  M 270.35 132.50
  A 1.56 1.53 -67.8 0 1 269.50 132.87
  Q 265.87 133.25 262.64 131.54
  A 1.49 1.46 -36.6 0 0 261.62 131.40
  Q 257.32 132.38 255.79 133.79
  C 243.38 145.29 223.57 155.38 206.50 153.81
  Q 197.53 152.98 188.22 149.55
  Q 182.07 147.29 178.67 146.69
  Q 167.45 144.70 156.07 145.50
  A 0.36 0.36 0.0 0 1 155.68 145.12
  C 156.08 136.90 161.44 136.04 168.66 136.17
  C 174.71 136.28 180.11 136.08 186.42 138.12
  Q 187.08 138.33 194.36 141.38
  Q 205.88 146.21 218.00 144.05
  Q 231.79 141.58 244.70 133.39
  C 247.81 131.42 250.39 127.33 253.58 126.09
  Q 260.07 123.59 266.78 126.24
  C 269.26 127.22 273.17 130.05 270.35 132.50
  Z"
/>
<path fill="#0e0815" d="
  M 224.47 125.77
  A 1.91 1.91 0.0 0 1 226.43 127.62
  L 226.48 129.61
  A 4.24 3.73 88.4 0 1 222.87 133.95
  L 221.81 133.98
  A 4.24 3.73 88.4 0 1 217.97 129.85
  L 217.91 127.86
  A 1.91 1.91 0.0 0 1 219.77 125.90
  L 224.47 125.77
  Z"
/>
<path fill="#0e0815" d="
  M 206.83 137.50
  A 2.34 2.34 0.0 0 1 204.65 139.99
  L 202.55 140.14
  A 6.25 5.00 -3.9 0 1 195.97 135.57
  L 195.97 135.57
  A 6.25 5.00 -3.9 0 1 201.87 130.16
  L 203.97 130.02
  A 2.34 2.34 0.0 0 1 206.47 132.19
  L 206.83 137.50
  Z"
/>
<path fill="#0e0815" d="
  M 284.32 164.49
  Q 284.95 155.65 288.55 147.54
  A 1.23 1.21 -1.0 0 1 289.11 146.97
  Q 293.03 145.10 294.49 149.06
  Q 298.52 160.08 296.57 172.25
  C 296.04 175.59 294.13 176.63 290.81 176.80
  Q 284.71 177.13 279.49 176.58
  C 272.16 175.81 260.76 162.44 264.69 155.07
  Q 264.92 154.65 265.39 154.54
  C 269.70 153.50 275.09 159.74 277.42 162.95
  C 279.20 165.42 280.99 165.95 283.78 165.15
  Q 284.28 165.01 284.32 164.49
  Z"
/>
<path fill="#0e0815" d="
  M 61.11 171.49
  C 59.14 176.63 55.19 183.17 56.54 186.90
  A 1.13 1.13 0.0 0 0 57.22 187.58
  Q 59.79 188.54 61.55 187.08
  C 63.90 185.14 66.29 183.80 68.24 181.66
  Q 73.81 175.55 80.99 171.38
  A 0.92 0.91 -23.6 0 1 82.32 171.90
  Q 83.45 175.47 82.59 178.98
  C 81.97 181.49 79.56 187.74 77.38 189.38
  C 70.16 194.84 60.52 203.29 50.83 196.67
  C 41.75 190.46 46.31 179.67 49.88 171.81
  C 51.13 169.06 52.52 165.76 55.95 165.80
  C 58.58 165.82 62.32 168.30 61.11 171.49
  Z"
/>
</svg>
